<?xml version="1.0" standalone="no"?><!DOCTYPE svg PUBLIC "-//W3C//DTD SVG 1.1//EN" "http://www.w3.org/Graphics/SVG/1.1/DTD/svg11.dtd"><svg t="1592208136990" class="icon" viewBox="0 0 1024 1024" version="1.1" xmlns="http://www.w3.org/2000/svg" p-id="3390" xmlns:xlink="http://www.w3.org/1999/xlink" width="200" height="200"><defs><style type="text/css"></style></defs><path d="M512 1000.727273a488.727273 488.727273 0 1 1 488.727273-488.727273 488.727273 488.727273 0 0 1-488.727273 488.727273z m0-919.272728a430.545455 430.545455 0 1 0 430.545455 430.545455A430.545455 430.545455 0 0 0 512 81.454545z" fill="" p-id="3391"></path><path d="M721.454545 750.545455a28.974545 28.974545 0 0 1-20.596363-8.494546L281.6 322.443636a29.090909 29.090909 0 0 1 41.192727-41.192727L742.4 700.858182A29.090909 29.090909 0 0 1 721.454545 750.545455z" fill="" p-id="3392"></path><path d="M302.545455 750.545455a29.090909 29.090909 0 0 1-20.596364-49.687273l419.258182-419.607273a29.090909 29.090909 0 0 1 41.192727 41.192727L322.792727 742.050909a28.974545 28.974545 0 0 1-20.247272 8.494546z" fill="" p-id="3393"></path></svg>